<svg width="36" height="36" viewBox="0 0 36 36" fill="none" xmlns="http://www.w3.org/2000/svg">
<path fill-rule="evenodd" clip-rule="evenodd" d="M18.0404 2.36844C26.877 2.36844 34.0404 9.53192 34.0404 18.3683C34.0404 27.2049 26.877 34.3684 18.0404 34.3684C9.20387 34.3684 2.04045 27.2049 2.04045 18.3683C2.04045 9.53192 9.20387 2.36844 18.0404 2.36844Z" fill="#070716"/>
<g clip-path="url(#clip0_178131_2)">
<path d="M20.3799 12.3696H21.9987V9.50761C21.7194 9.46861 20.7589 9.38086 19.6403 9.38086C17.3063 9.38086 15.7074 10.8711 15.7074 13.6101V16.1309H13.1318V19.3304H15.7074V27.3809H18.8652V19.3311H21.3367L21.729 16.1316H18.8645V13.9274C18.8653 13.0026 19.1105 12.3696 20.3799 12.3696Z" fill="white"/>
</g>
<defs>
<clipPath id="clip0_178131_2">
<rect width="17.7323" height="18" fill="white" transform="translate(8.56057 9.38086)"/>
</clipPath>
</defs>
</svg>
