<svg width="36" height="36" viewBox="0 0 36 36" fill="none" xmlns="http://www.w3.org/2000/svg">
<path fill-rule="evenodd" clip-rule="evenodd" d="M18.0404 2.36844C26.877 2.36844 34.0404 9.53192 34.0404 18.3683C34.0404 27.2049 26.877 34.3684 18.0404 34.3684C9.20387 34.3684 2.04045 27.2049 2.04045 18.3683C2.04045 9.53192 9.20387 2.36844 18.0404 2.36844Z" fill="#070716"/>
<g clip-path="url(#clip0_178131_5)">
<path d="M26.0357 15.0849C25.9982 14.2348 25.8607 13.6503 25.6638 13.1439C25.4606 12.6063 25.148 12.125 24.7385 11.7249C24.3384 11.3185 23.854 11.0028 23.3226 10.8028C22.8132 10.6059 22.2318 10.4684 21.3817 10.4309C20.5252 10.3903 20.2533 10.3809 18.081 10.3809C15.9087 10.3809 15.6368 10.3903 14.7835 10.4277C13.9333 10.4652 13.3489 10.6028 12.8425 10.7996C12.3048 11.0028 11.8236 11.3154 11.4234 11.7249C11.0171 12.125 10.7015 12.6094 10.5014 13.1408C10.3045 13.6503 10.167 14.2316 10.1295 15.0817C10.0888 15.9382 10.0794 16.2101 10.0794 18.3824C10.0794 20.5547 10.0888 20.8266 10.1263 21.6799C10.1638 22.5301 10.3014 23.1145 10.4983 23.621C10.7015 24.1586 11.0171 24.6399 11.4234 25.04C11.8236 25.4463 12.308 25.762 12.8394 25.962C13.3489 26.159 13.9302 26.2964 14.7804 26.3339C15.6336 26.3715 15.9056 26.3808 18.0779 26.3808C20.2502 26.3808 20.5221 26.3715 21.3755 26.3339C22.2256 26.2964 22.8101 26.159 23.3164 25.962C24.3917 25.5463 25.2418 24.6962 25.6575 23.621C25.8544 23.1115 25.992 22.5301 26.0294 21.6799C26.0669 20.8266 26.0763 20.5547 26.0763 18.3824C26.0763 16.2101 26.0732 15.9382 26.0357 15.0849ZM24.5948 21.6174C24.5604 22.3988 24.4292 22.8208 24.3198 23.1021C24.0509 23.7991 23.4977 24.3523 22.8007 24.6212C22.5194 24.7306 22.0944 24.8618 21.316 24.8961C20.4721 24.9338 20.219 24.943 18.0842 24.943C15.9494 24.943 15.6931 24.9338 14.8522 24.8961C14.0708 24.8618 13.6489 24.7306 13.3676 24.6212C13.0207 24.493 12.7049 24.2898 12.4487 24.0241C12.183 23.7647 11.9798 23.4521 11.8516 23.1053C11.7422 22.824 11.611 22.3988 11.5767 21.6206C11.5391 20.7767 11.5298 20.5235 11.5298 18.3886C11.5298 16.2538 11.5391 15.9976 11.5767 15.1568C11.611 14.3754 11.7422 13.9535 11.8516 13.6722C11.9798 13.3252 12.183 13.0095 12.4518 12.7531C12.7112 12.4875 13.0237 12.2843 13.3707 12.1562C13.652 12.0468 14.0772 11.9156 14.8554 11.8812C15.6993 11.8437 15.9525 11.8343 18.0872 11.8343C20.2252 11.8343 20.4783 11.8437 21.3192 11.8812C22.1006 11.9156 22.5225 12.0468 22.8038 12.1562C23.1507 12.2843 23.4664 12.4875 23.7227 12.7531C23.9884 13.0126 24.1916 13.3252 24.3198 13.6722C24.4292 13.9535 24.5604 14.3785 24.5948 15.1568C24.6323 16.0007 24.6417 16.2538 24.6417 18.3886C24.6417 20.5235 24.6323 20.7735 24.5948 21.6174Z" fill="white"/>
<path d="M18.081 14.2725C15.8119 14.2725 13.9708 16.1134 13.9708 18.3826C13.9708 20.6519 15.8119 22.4928 18.081 22.4928C20.3502 22.4928 22.1912 20.6519 22.1912 18.3826C22.1912 16.1134 20.3502 14.2725 18.081 14.2725ZM18.081 21.0488C16.6089 21.0488 15.4148 19.8549 15.4148 18.3826C15.4148 16.9104 16.6089 15.7165 18.081 15.7165C19.5532 15.7165 20.7472 16.9104 20.7472 18.3826C20.7472 19.8549 19.5532 21.0488 18.081 21.0488Z" fill="white"/>
<path d="M23.3133 14.1094C23.3133 14.6393 22.8837 15.069 22.3537 15.069C21.8238 15.069 21.3941 14.6393 21.3941 14.1094C21.3941 13.5794 21.8238 13.1499 22.3537 13.1499C22.8837 13.1499 23.3133 13.5794 23.3133 14.1094Z" fill="white"/>
</g>
<defs>
<clipPath id="clip0_178131_5">
<rect width="16" height="16" fill="white" transform="translate(10.0513 10.3809)"/>
</clipPath>
</defs>
</svg>
