<svg width="36" height="36" viewBox="0 0 36 36" fill="none" xmlns="http://www.w3.org/2000/svg">
<path fill-rule="evenodd" clip-rule="evenodd" d="M18.0405 2.36844C26.877 2.36844 34.0404 9.53192 34.0404 18.3683C34.0404 27.2049 26.877 34.3684 18.0405 34.3684C9.2039 34.3684 2.04045 27.2049 2.04045 18.3683C2.04045 9.53192 9.2039 2.36844 18.0405 2.36844Z" fill="#070716"/>
<g clip-path="url(#clip0_178131_4)">
<path d="M23.6513 11.3809H12.4513C11.6813 11.3809 11.0513 12.0109 11.0513 12.7809V23.9809C11.0513 24.7509 11.6813 25.3809 12.4513 25.3809H23.6513C24.4213 25.3809 25.0513 24.7509 25.0513 23.9809V12.7809C25.0513 12.0109 24.4213 11.3809 23.6513 11.3809ZM15.2513 23.2809H13.1513V16.9809H15.2513V23.2809ZM14.2013 15.7909C13.5013 15.7909 12.9413 15.2309 12.9413 14.5309C12.9413 13.8309 13.5013 13.2709 14.2013 13.2709C14.9013 13.2709 15.4613 13.8309 15.4613 14.5309C15.4613 15.2309 14.9013 15.7909 14.2013 15.7909ZM22.9513 23.2809H20.8513V19.5709C20.8513 19.0109 20.3613 18.5209 19.8013 18.5209C19.2413 18.5209 18.7513 19.0109 18.7513 19.5709V23.2809H16.6513V16.9809H18.7513V17.8209C19.1013 17.2609 19.8713 16.8409 20.5013 16.8409C21.8313 16.8409 22.9513 17.9609 22.9513 19.2909V23.2809Z" fill="white"/>
</g>
<defs>
<clipPath id="clip0_178131_4">
<rect width="14" height="14" fill="white" transform="translate(11.0513 11.3809)"/>
</clipPath>
</defs>
</svg>
