<svg width="36" height="36" viewBox="0 0 36 36" fill="none" xmlns="http://www.w3.org/2000/svg">
<path fill-rule="evenodd" clip-rule="evenodd" d="M18.0404 2.36844C26.8769 2.36844 34.0404 9.53192 34.0404 18.3683C34.0404 27.2049 26.8769 34.3684 18.0404 34.3684C9.20384 34.3684 2.04038 27.2049 2.04038 18.3683C2.04038 9.53192 9.20384 2.36844 18.0404 2.36844Z" fill="#070716"/>
<g clip-path="url(#clip0_178131_3)">
<path d="M28.0513 12.1796C27.3076 12.5059 26.5151 12.7221 25.6888 12.8271C26.5388 12.3196 27.1876 11.5221 27.4926 10.5609C26.7001 11.0334 25.8251 11.3671 24.8926 11.5534C24.1401 10.7521 23.0676 10.2559 21.8976 10.2559C19.6276 10.2559 17.8001 12.0984 17.8001 14.3571C17.8001 14.6821 17.8276 14.9946 17.8951 15.2921C14.4863 15.1259 11.4701 13.4921 9.44383 11.0034C9.09008 11.6171 8.88258 12.3196 8.88258 13.0759C8.88258 14.4959 9.61383 15.7546 10.7038 16.4834C10.0451 16.4709 9.39883 16.2796 8.85133 15.9784C8.85133 15.9909 8.85133 16.0071 8.85133 16.0234C8.85133 18.0159 10.2726 19.6709 12.1363 20.0521C11.8026 20.1434 11.4388 20.1871 11.0613 20.1871C10.7988 20.1871 10.5338 20.1721 10.2851 20.1171C10.8163 21.7409 12.3238 22.9346 14.1163 22.9734C12.7213 24.0646 10.9501 24.7221 9.03258 24.7221C8.69633 24.7221 8.37383 24.7071 8.05133 24.6659C9.86758 25.8371 12.0201 26.5059 14.3413 26.5059C21.8863 26.5059 26.0113 20.2559 26.0113 14.8384C26.0113 14.6571 26.0051 14.4821 25.9963 14.3084C26.8101 13.7309 27.4938 13.0096 28.0513 12.1796Z" fill="white"/>
</g>
<defs>
<clipPath id="clip0_178131_3">
<rect width="20" height="20" fill="white" transform="translate(8.05133 8.38086)"/>
</clipPath>
</defs>
</svg>
